<svg xmlns="http://www.w3.org/2000/svg" viewBox="0 0 511.999 511.999" width="512" height="512"><path d="M258.948 15.416c97.081 1.566 176.061 81.858 176.061 178.985 0 4.251 3.445 7.696 7.696 7.696s7.696-3.445 7.696-7.696c0-51.37-19.85-99.814-55.893-136.409C358.506 21.439 310.45.852 259.195.025c-52.105-.833-101.473 19.09-139.139 56.118-37.647 37.009-58.408 86.042-58.458 138.067-.065 66.692 33.475 128.008 89.718 164.017 13.192 8.445 21.069 22.655 21.069 38.01v24.495c0 4.649 1.791 8.877 4.7 12.07-2.076 3.872-2.663 8.367-1.594 12.729l5.597 22.826a17.917 17.917 0 0 0 17.44 13.681h6.497v12.005c0 9.901 8.056 17.958 17.958 17.958h66.035c9.901 0 17.958-8.056 17.958-17.958v-12.005h6.497a17.916 17.916 0 0 0 17.44-13.681l5.597-22.826c1.07-4.362.483-8.858-1.594-12.729 2.909-3.192 4.7-7.421 4.7-12.07v-24.049c0-15.654 7.811-29.989 20.895-38.347 45.11-28.812 76.644-75.355 86.518-127.693a7.696 7.696 0 1 0-15.125-2.854c-9.088 48.183-38.13 91.038-79.676 117.575-17.535 11.2-28.003 30.384-28.003 51.319v24.049a2.567 2.567 0 0 1-2.565 2.565h-32.188V198.862c0-16.945-13.785-30.729-30.729-30.729h-1.651c-16.945 0-30.729 13.785-30.729 30.729v100.912c0 4.251 3.445 7.696 7.696 7.696s7.696-3.445 7.696-7.696v-15.265h32.326v138.789h-32.326v-86.742c0-4.251-3.445-7.696-7.696-7.696s-7.696 3.445-7.696 7.696v86.742h-36.016a2.567 2.567 0 0 1-2.565-2.565v-24.495c0-20.629-10.528-39.684-28.162-50.973-51.797-33.162-82.684-89.626-82.625-151.039.046-47.868 19.174-93.009 53.856-127.104 34.702-34.115 80.17-52.513 128.097-51.706zm15.128 253.701h-32.325v-70.255c0-8.456 6.88-15.337 15.337-15.337h1.651c8.456 0 15.337 6.88 15.337 15.337v70.255zm17.507 224.926a2.567 2.567 0 0 1-2.565 2.565h-66.035a2.567 2.567 0 0 1-2.565-2.565v-12.005h71.165v12.005zm-100.669-54.371a2.52 2.52 0 0 1 2.018-.982h126.136c1.087 0 1.731.616 2.018.982.287.366.732 1.139.473 2.194l-5.597 22.826a2.56 2.56 0 0 1-2.492 1.954H198.527a2.56 2.56 0 0 1-2.491-1.954l-5.597-22.826a2.533 2.533 0 0 1 .475-2.194z" fill="#009ee0"/><path d="M255.957 59.067a7.695 7.695 0 0 0-7.696 7.696v55.981a7.695 7.695 0 0 0 7.696 7.696 7.695 7.695 0 0 0 7.696-7.696V66.763a7.695 7.695 0 0 0-7.696-7.696zm-31.035 78.027l-36.487-36.487a7.698 7.698 0 0 0-10.885 0 7.695 7.695 0 0 0 0 10.884l36.487 36.487c1.503 1.502 3.474 2.253 5.443 2.253s3.939-.751 5.443-2.253a7.696 7.696 0 0 0-.001-10.884zm98.559-36.487l-36.487 36.486a7.693 7.693 0 0 0-.003 10.883 7.672 7.672 0 0 0 5.444 2.255c1.969 0 3.937-.75 5.441-2.252l36.49-36.488-10.885-10.884z" fill="#009ee0"/></svg>