<svg xmlns="http://www.w3.org/2000/svg" viewBox="0 0 512 512" width="512" height="512"><path d="M383.973 54.892c-4.553-25.615-10.44-48.963-10.5-49.196a7.55 7.55 0 0 0-5.402-5.449 7.54 7.54 0 0 0-7.38 2.097c-2.184 2.293-53.59 56.429-64.133 78.217-9.768 20.186-4.614 43.785 11.08 58.255l-4.903 19.932c-.014.044-.032.087-.045.132l-21.94 76.065h-61.371L194.413 98.306c-.009-.048-.023-.094-.033-.141a6.996 6.996 0 0 0-.197-.763 7.732 7.732 0 0 0-.627-1.446c-.022-.039-.039-.081-.062-.119l-42.645-72.495a7.55 7.55 0 0 0-13.943 2.548l-14.256 82.891c-.008.049-.01.099-.018.148a7.332 7.332 0 0 0-.077.782 6.773 6.773 0 0 0-.007.377 7.265 7.265 0 0 0 .099 1.2c.007.043.009.086.017.128l22.569 123.531h-10.942a7.547 7.547 0 0 0-7.547 7.547v59.794a7.547 7.547 0 0 0 15.094 0V250.04h12.403l.033.001.032-.001H286.4l.028.002.024-.002h54.931v25.642H170.517a7.547 7.547 0 0 0 0 15.094h170.868v177.456c0 15.812-12.863 28.676-28.676 28.676H170.515c-15.812 0-28.675-12.863-28.675-28.676v-131.58a7.547 7.547 0 0 0-15.094 0v131.579c0 24.134 19.634 43.769 43.768 43.769h142.195c24.134 0 43.769-19.634 43.769-43.769V242.492a7.547 7.547 0 0 0-7.547-7.547H335.5l13.206-64.595 4.899-19.912a50.847 50.847 0 0 0 4.069-1.227c12.549-4.364 22.648-13.354 28.436-25.314 3.18-6.572 6.419-20.877-2.137-69.005zm-235.685-6.136l9.36 15.911-12.488 2.281 3.128-18.192zm-5.853 34.033l23.362-4.268 9.211 15.659-35.653 6.514 3.08-17.905zm18.143 152.157l-21.709-118.82 42.054-7.683 23.113 126.503h-43.458zm159.517 0h-23.637l18.725-64.912 12.771 3.142 4.541 1.117-12.4 60.653zm15.72-75.378l-16.725-4.115 1.929-7.838a49.584 49.584 0 0 0 16.695 4.237l-1.899 7.716zm36.708-42.245c-4.032 8.331-11.066 14.593-19.807 17.634a34.906 34.906 0 0 1-6.426 1.572l-.134.022c-6.753.963-13.638-.094-19.916-3.131a35.073 35.073 0 0 1-5.634-3.417l-.007-.005c-5.516-4.101-9.685-9.749-11.992-16.385-3.04-8.742-2.494-18.144 1.536-26.474 6.522-13.479 34.332-45.054 51.956-64.193 8.325 36.341 15.886 83.09 10.424 94.377z" fill="#009ee0"/><path d="M313.884 314.753a7.547 7.547 0 0 0-7.547 7.547v44.104c0 9.153-7.446 16.599-16.599 16.599-9.154 0-16.599-7.446-16.599-16.599V339.12c0-13.437-10.932-24.367-24.367-24.367s-24.367 10.931-24.367 24.367v60.042c0 9.892-8.048 17.939-17.939 17.939s-17.939-8.048-17.939-17.939V356.45a7.547 7.547 0 0 0-15.094 0v42.712c0 18.214 14.818 33.032 33.032 33.032s33.032-14.818 33.032-33.032V339.12c0-5.115 4.161-9.274 9.274-9.274s9.274 4.161 9.274 9.274v27.283c0 17.475 14.217 31.693 31.693 31.693s31.693-14.217 31.693-31.693v-44.104a7.548 7.548 0 0 0-7.547-7.546z" fill="#009ee0"/></svg>