<svg xmlns="http://www.w3.org/2000/svg" viewBox="0 0 511.999 511.999" width="512" height="512"><path d="M437.018 74.98C388.667 26.628 324.379 0 256 0c-38.017 0-74.608 8.137-108.757 24.185a7.658 7.658 0 0 0 6.513 13.862c29.797-14.003 61.581-21.587 94.586-22.604V81.22c-42.475 1.839-81.07 18.888-110.46 45.832L91.312 80.48a241.826 241.826 0 0 1 29.231-23.459 7.657 7.657 0 1 0-8.63-12.652C41.837 92.171 0 171.285 0 256c0 68.381 26.628 132.667 74.981 181.02C123.332 485.371 187.62 512 256 512s132.667-26.628 181.019-74.98c48.351-48.353 74.98-112.64 74.98-181.02S485.37 123.333 437.018 74.98zm-299.135 73.732l54.942 54.943c-10.268 12.371-16.969 27.795-18.539 44.688h-77.74c1.814-38.257 17.154-73.03 41.337-99.631zm54.942 159.633l-54.942 54.942c-24.183-26.6-39.522-61.375-41.338-99.63h77.74v.001c1.572 16.891 8.271 32.316 18.54 44.687zm-3.141-44.688h47.829l-33.797 33.797c-7.557-9.512-12.577-21.116-14.032-33.797zm-.001-15.315c1.455-12.681 6.476-24.285 14.033-33.797l33.797 33.797h-47.83zM80.488 91.318l46.564 46.564c-26.944 29.39-43.994 67.985-45.832 110.46H15.44c1.871-59.014 25.317-114.673 65.048-157.024zM15.45 263.657h65.771c1.839 42.475 18.888 81.07 45.832 110.46l-46.482 46.482c-38.812-41.341-63.217-96.35-65.121-156.942zM248.342 496.55c-60.592-1.904-115.601-26.309-156.942-65.122l46.482-46.482c29.39 26.944 67.985 43.994 110.46 45.832v65.772zm0-81.096c-38.256-1.815-73.03-17.155-99.629-41.337l54.942-54.942c12.371 10.268 27.795 16.968 44.688 18.538v77.741zm0-93.138c-12.681-1.455-24.285-6.475-33.796-14.032l33.796-33.797v47.829zm0-84.804l-33.796-33.797c9.512-7.556 21.116-12.578 33.796-14.033v47.83zm0-63.227c-16.892 1.57-32.317 8.271-44.688 18.538l-54.942-54.942c26.6-24.182 61.375-39.521 99.629-41.337v77.741zm248.21 74.057h-65.781c-.595-13.776-2.777-27.388-6.546-40.562a7.658 7.658 0 0 0-14.723 4.214c3.377 11.804 5.352 23.999 5.937 36.348h-77.724c-1.571-16.892-8.271-32.317-18.539-44.688l55.06-55.06a161.338 161.338 0 0 1 24.78 36.385 7.656 7.656 0 0 0 10.267 3.445 7.658 7.658 0 0 0 3.445-10.267 175.244 175.244 0 0 0-27.723-40.332L431.43 91.4c38.813 41.341 63.218 96.351 65.122 156.942zm-174.236 15.315c-1.455 12.681-6.475 24.285-14.033 33.797l-33.797-33.797h47.83zm-47.829-15.315l33.797-33.797c7.557 9.512 12.578 21.116 14.033 33.797h-47.83zm63.227 15.316h77.74c-1.816 38.255-17.155 73.029-41.338 99.629l-54.942-54.942c10.269-12.371 16.969-27.795 18.54-44.687zM263.657 15.449c60.592 1.904 115.601 26.31 156.942 65.122l-46.427 46.427a175.757 175.757 0 0 0-24.795-18.976c-25.76-16.288-55.249-25.47-85.72-26.792V15.449zm0 81.11c37.774 1.769 72.761 16.574 99.763 41.19l-55.075 55.075c-12.371-10.268-27.795-16.968-44.688-18.538V96.559zm0 93.125c12.681 1.455 24.285 6.475 33.796 14.033l-33.796 33.796v-47.829zm0 84.803l33.796 33.797c-9.512 7.556-21.116 12.578-33.796 14.033v-47.83zm44.688 44.688l54.942 54.942c-26.6 24.183-61.374 39.522-99.629 41.337v-77.74c16.891-1.571 32.316-8.271 44.687-18.539zM263.657 496.55v-65.771c42.475-1.839 81.07-18.888 110.46-45.832l46.482 46.482c-41.341 38.811-96.35 63.217-156.942 65.121zm167.771-75.95l-46.482-46.482c26.944-29.39 43.994-67.985 45.832-110.46h65.771c-1.903 60.591-26.308 115.6-65.121 156.942z" fill="#009ee0"/></svg>